<?xml version="1.0" encoding="iso-8859-1"?>
<!-- Generator: Adobe Illustrator 19.0.0, SVG Export Plug-In . SVG Version: 6.00 Build 0)  -->
<svg version="1.1" id="Capa_1" xmlns="http://www.w3.org/2000/svg" xmlns:xlink="http://www.w3.org/1999/xlink" x="0px" y="0px"
	 viewBox="0 0 512 512" style="enable-background:new 0 0 512 512;" xml:space="preserve">
<path style="fill:#1E73BE;" d="M159.069,225.502v-56.143h-9.893c-6.019,0-10.899,4.88-10.899,10.899v34.878
	c0,6.019,4.88,10.899,10.899,10.899h9.907C159.08,225.858,159.069,225.681,159.069,225.502z"/>
<path style="fill:#5F6E9B;" d="M184.638,512c-3.192,0-6.437-0.612-9.572-1.904c-12.845-5.292-18.967-19.994-13.675-32.838
	l43.72-106.112l3.307-79.035c0.566-13.521,11.706-24.101,25.112-24.101c0.356,0,0.712,0.008,1.069,0.022
	c13.88,0.581,24.66,12.302,24.08,26.182l-3.493,83.465c-0.123,2.931-0.758,5.817-1.874,8.53l-45.409,110.212
	C203.904,506.132,194.526,512,184.638,512z"/>
<g>
	<path style="fill:#414B82;" d="M340.485,511.996c-12.386,0.001-23.173-9.148-24.891-21.763l-16.165-118.754l-28.852-79.213
		c-4.784-13.042,1.911-27.492,14.953-32.276c13.038-4.783,27.492,1.911,32.274,14.953l29.791,81.775
		c0.625,1.704,1.064,3.47,1.309,5.269l16.534,121.46c1.873,13.764-7.766,26.441-21.529,28.316
		C342.759,511.92,341.614,511.996,340.485,511.996z"/>
	<path style="fill:#414B82;" d="M323.982,293.164H208.349V105.785h85.069c16.88,0,30.564,13.684,30.564,30.564V293.164z"/>
</g>
<circle style="fill:#FFB69E;" cx="273.446" cy="45.245" r="45.245"/>
<path style="fill:#1E73BE;" d="M211.87,221.789h-20.566v-15.091h20.566c40.806,0,74.003-33.197,74.003-74.002
	c0-10.678-8.688-19.365-19.365-19.365h-75.204V98.239h75.204c19,0,34.457,15.458,34.457,34.457
	C300.965,181.822,260.997,221.789,211.87,221.789z"/>
<path style="fill:#FFB69E;" d="M321.718,219.596c-5.901,0-11.568-2.599-15.423-7.201l-55.337-66.063
	c-7.136-8.52-6.015-21.21,2.504-28.346c8.521-7.137,21.211-6.014,28.347,2.504l34.085,40.692l19.131-45.852
	c4.28-10.256,16.063-15.101,26.318-10.823c10.256,4.279,15.101,16.062,10.823,26.318l-31.875,76.396
	c-2.705,6.484-8.597,11.088-15.543,12.145C323.737,219.521,322.724,219.596,321.718,219.596z"/>
<path style="fill:#495491;" d="M306.295,212.395l-55.337-66.063c-7.136-8.52-6.015-21.21,2.504-28.346
	c8.521-7.137,21.211-6.014,28.347,2.504l34.085,40.692l19.131-45.852l37.141,15.496l-31.875,76.396
	C334.507,221.084,316.015,223.997,306.295,212.395z"/>
<path style="fill:#2896FF;" d="M226.203,225.503c0,18.816-15.253,34.069-34.069,34.069s-34.069-15.253-34.069-34.069V113.216
	c0-18.816,15.253-34.069,34.069-34.069s34.069,15.253,34.069,34.069L226.203,225.503L226.203,225.503z"/>
<g>
</g>
<g>
</g>
<g>
</g>
<g>
</g>
<g>
</g>
<g>
</g>
<g>
</g>
<g>
</g>
<g>
</g>
<g>
</g>
<g>
</g>
<g>
</g>
<g>
</g>
<g>
</g>
<g>
</g>
</svg>
